<svg xmlns="http://www.w3.org/2000/svg" viewBox="0 0 153 116" width="150">
  <path fill="none" stroke="#FFF" stroke-width="4" d="M8 2h137c3.3 0 6 2.7 6 6v100c0 3.3-2.7 6-6 6H8c-3.3 0-6-2.7-6-6V8c0-3.3 2.7-6 6-6z"/>
  <path fill="#CE482D" d="M60.9 48.2c1.4-4.5 4.1-8.5 7.5-11.5 4.6-4.1 10.8-6.6 17.4-6.6 6.9 0 11.4 1.7 14.8 3.5.5.2.7.9.4 1.5l-3.3 7.1c-.3.6-.9.7-1.4.4-3-1.6-6.3-3-10.8-3-3.1 0-6 1.1-8.3 2.8-2 1.5-3.7 3.4-4.8 5.7h20c.7 0 1.2.5 1.2 1.1v3.1c0 .6-.5 1.1-1.2 1.1H70.6c-.1.7-.1 1.5-.1 2.2 0 .9 0 1.7.1 2.5h18c.7 0 1.2.4 1.2 1.1v3.1c0 .6-.5 1.1-1.2 1.1H72.5c.9 2.2 2.5 4.1 4.3 5.5 2.5 1.8 5.5 2.8 8.8 2.8 4.5 0 8.1-1.2 11.2-3 .5-.2 1.1-.1 1.4.4l3.2 7.1c.3.5.1 1.2-.4 1.5-3.7 2-8.3 3.6-15.2 3.6-6.2 0-11.6-1.6-15.9-4.6-4.5-3-7.7-7.6-9.1-13.2h-4.2c-.7 0-1.2-.5-1.2-1.1v-3.1c0-.7.5-1.1 1.2-1.1H60c-.1-.8-.1-1.6-.1-2.5 0-.7.1-1.5.1-2.2h-3.4c-.7 0-1.2-.5-1.2-1.1v-3.1c0-.6.5-1.1 1.2-1.1h4.3z"/>
</svg>
