<svg xmlns="http://www.w3.org/2000/svg" viewBox="0 0 153 116" width="150">
  <path fill="none" stroke="#FFF" stroke-width="4" d="M8 2h137c3.3 0 6 2.7 6 6v100c0 3.3-2.7 6-6 6H8c-3.3 0-6-2.7-6-6V8c0-3.3 2.7-6 6-6z"/>
  <path fill="#CE482D" d="M68.3 61.8H62c-.6 0-1.1-.5-1.1-1.2v-6.1c0-.6.5-1.1 1.1-1.1h3.9c-.8-2.6-1.5-5.2-1.5-8 0-4.5 1.6-8.3 4.6-10.9 2.9-2.6 7-4.2 12.3-4.2 4.9 0 9.2 1.2 12.3 3 .5.3.7.9.4 1.4l-2.8 5.8c-.3.6-.9.7-1.4.4-2.6-1.4-5.1-2-7.7-2s-4.5.8-5.9 2.1c-1.2 1.2-2 2.9-2 5 0 2.6.7 5 1.5 7.5h12.8c.7 0 1.1.5 1.1 1.1v6.1c0 .7-.4 1.2-1.1 1.2H78c0 .4.1.7.1 1.1 0 3.9-1.6 6.9-2.9 8.6h17.7c.6 0 1.1.5 1.1 1.1v6.9c0 .6-.5 1.1-1.1 1.1H60.3c-.6 0-1.1-.5-1.1-1.1v-6.9c0-.6.5-1.1 1.1-1.1h5.1c1.5-1.4 3.1-4.1 3.1-8 0-.6-.1-1.2-.2-1.8z"/>
</svg>
